# File created by Blade
# Date/Time:  Thu Sep 25 15:31:15 2014
# Frame Rate: 120.000 fps
#------------------------------------------------------
:FULLY-SPECIFIED
:DEGREES
344
root 29.545008 32.166166 -2.306174 154.478837 -70.895236 -131.244307
Spine 22.459719 14.001030 9.769902
Head -24.521695 -1.464154 2.544956
LeftShoulder 9.622668 8.790315 11.728911
LeftArm 57.764109 8.434171 -31.377877
LeftForeArm 7.053434 -0.000000 17.942314
LeftHand -25.239971 -0.000000 2.011763
LeftHandThumb1 -26.253704 0.000000 33.147579
RightShoulder 8.687740 24.688044 -15.908969
RightArm 33.051182 -28.638716 53.695226
RightForeArm -29.520300 -0.000000 15.193224
RightHand -1.721357 -0.000000 7.923156
RightHandThumb1 -24.326973 -0.000000 -32.862282
LeftUpLeg -54.909799 18.278083 1.349120
LeftLeg 5.489968 -0.000000 -0.000000
LeftFoot 35.193576 24.168808 -20.156136
LeftToeBase 9.800424 -0.000000 -0.000000
RightUpLeg -22.997394 -0.432605 23.420185
RightLeg 5.918777 -0.000000 -0.000000
RightFoot -8.461058 -9.073283 -11.879085
RightToeBase 0.216568 -0.000000 -0.000000
345
root 29.561814 32.158451 -2.318360 154.261869 -70.759102 -130.994529
Spine 23.039359 14.021072 9.903256
Head -25.110823 -1.373471 2.462641
LeftShoulder 9.771649 8.632016 11.918389
LeftArm 58.346730 7.901832 -31.331394
LeftForeArm 7.172886 -0.000000 17.860454
LeftHand -25.055983 0.000000 1.618946
LeftHandThumb1 -26.253704 0.000000 33.147579
RightShoulder 9.010182 24.991692 -16.020072
RightArm 33.661992 -28.390405 53.306523
RightForeArm -29.539700 -0.000000 15.082476
RightHand -1.654872 -0.000000 8.154453
RightHandThumb1 -24.326973 -0.000000 -32.862282
LeftUpLeg -54.896352 18.354885 1.513004
LeftLeg 5.403037 -0.000000 -0.000000
LeftFoot 35.125154 24.388570 -20.488078
LeftToeBase 9.409324 -0.000000 -0.000000
RightUpLeg -22.915054 -0.116044 23.497314
RightLeg 5.731369 -0.000000 -0.000000
RightFoot -8.299744 -9.272360 -11.901639
RightToeBase 0.219755 -0.000000 -0.000000
346
root 29.577997 32.151034 -2.328454 154.098382 -70.643677 -130.821388
Spine 23.658171 14.075621 10.023749
Head -25.760001 -1.321877 2.400378
LeftShoulder 10.041820 8.334292 12.118787
LeftArm 58.731405 7.418501 -31.312631
LeftForeArm 7.162644 -0.000000 17.899885
LeftHand -25.015297 -0.000000 1.812084
LeftHandThumb1 -26.253704 0.000000 33.147579
RightShoulder 9.282902 25.275145 -16.155607
RightArm 34.253427 -28.094871 52.918953
RightForeArm -29.520076 -0.000000 15.038735
RightHand -1.655723 -0.000000 8.417695
RightHandThumb1 -24.326973 -0.000000 -32.862282
LeftUpLeg -54.848657 18.397271 1.679165
LeftLeg 5.323013 -0.000000 -0.000000
LeftFoot 35.077646 24.496342 -20.568086
LeftToeBase 9.124950 -0.000000 -0.000000
RightUpLeg -22.877146 0.033041 23.593990
RightLeg 5.667478 -0.000000 -0.000000
RightFoot -8.231981 -9.314366 -11.914194
RightToeBase 0.135642 -0.000000 -0.000000
347
root 29.597631 32.144982 -2.335993 154.040285 -70.562350 -130.701940
Spine 24.210531 14.124912 10.074145
Head -26.406314 -1.315265 2.416207
LeftShoulder 10.224541 8.100160 12.306094
LeftArm 59.224548 6.942584 -31.227677
LeftForeArm 7.128622 -0.000000 17.954741
LeftHand -25.101741 -0.000000 1.761535
LeftHandThumb1 -26.253704 0.000000 33.147579
RightShoulder 9.630168 25.763462 -16.268057
RightArm 34.504704 -27.782841 52.778991
RightForeArm -29.628217 0.000000 15.068018
RightHand -1.723568 -0.000000 8.903491
RightHandThumb1 -24.326973 -0.000000 -32.862282
LeftUpLeg -54.919612 18.511820 1.662581
LeftLeg 5.267003 -0.000000 -0.000000
LeftFoot 35.103627 24.474051 -20.572059
LeftToeBase 8.888942 -0.000000 -0.000000
RightUpLeg -22.940578 0.125220 23.677483
RightLeg 5.678024 -0.000000 -0.000000
RightFoot -8.215158 -9.303140 -11.931079
RightToeBase 0.034113 -0.000000 -0.000000
348
root 29.617284 32.138905 -2.338890 154.087912 -70.491111 -130.701050
Spine 24.781420 14.196830 10.083050
Head -27.074644 -1.288255 2.459668
LeftShoulder 10.467719 7.702777 12.533430
LeftArm 59.564277 6.543733 -31.220120
LeftForeArm 7.329364 -0.000000 17.924618
LeftHand -24.712258 0.000000 1.622490
LeftHandThumb1 -26.253704 0.000000 33.147579
RightShoulder 9.855579 25.971032 -16.344088
RightArm 35.127763 -27.281103 52.427693
RightForeArm -29.696143 -0.000000 15.058563
RightHand -1.786291 -0.000000 9.121857
RightHandThumb1 -24.326973 -0.000000 -32.862282
LeftUpLeg -54.997576 18.671515 1.546928
LeftLeg 5.194304 -0.000000 -0.000000
LeftFoot 35.188632 24.380894 -20.505756
LeftToeBase 8.845532 -0.000000 -0.000000
RightUpLeg -22.999761 0.350967 23.670739
RightLeg 5.692479 -0.000000 -0.000000
RightFoot -8.194990 -9.446242 -11.960763
RightToeBase 0.154931 -0.000000 -0.000000
